<?xml version="1.0" encoding="UTF-8"?>
<svg width="38px" height="53px" viewBox="0 0 38 53" version="1.1" xmlns="http://www.w3.org/2000/svg" xmlns:xlink="http://www.w3.org/1999/xlink">
    <!-- Generator: Sketch 42 (36781) - http://www.bohemiancoding.com/sketch -->
    <title>mark</title>
    <desc>Created with Sketch.</desc>
    <defs></defs>
    <g id="Page-1" stroke="none" stroke-width="1" fill="none" fill-rule="evenodd">
        <g id="mark" fill-rule="nonzero" fill="#00BEA4">
            <path d="M26.8125,18.7909091 C26.8125,14.4545455 23.15625,10.6 18.525,10.6 C13.89375,10.6 9.99375,14.4545455 9.99375,18.7909091 C9.99375,23.3681818 13.65,26.9818182 18.28125,26.9818182 C23.15625,27.2227273 26.8125,23.3681818 26.8125,18.7909091 Z" id="Shape"></path>
            <path d="M18.525,52.2772727 L21.9375,47.7 C25.59375,43.1227273 37.05,27.2227273 37.05,18.7909091 C37.05,7.46818182 29.7375,2.1649349e-15 18.525,2.1649349e-15 C7.3125,2.52323415e-17 0,7.46818182 0,18.7909091 C0,28.1863636 13.65,45.7727273 15.1125,47.7 L18.525,52.2772727 Z M6.825,18.7909091 C6.825,12.5272727 11.94375,7.22727273 18.525,7.22727273 C24.8625,7.22727273 30.225,12.2863636 30.225,18.7909091 C30.225,25.0545455 25.10625,30.3545455 18.525,30.3545455 C11.94375,30.3545455 6.825,25.2954545 6.825,18.7909091 Z" id="Shape"></path>
        </g>
    </g>
</svg>